<svg xmlns="http://www.w3.org/2000/svg" xmlns:xlink="http://www.w3.org/1999/xlink" width="1280" height="800" viewBox="0 0 1280 800"><defs><linearGradient id="a" x2="1" y2="1" gradientUnits="objectBoundingBox"><stop offset="0" stop-color="#73c1e1"/><stop offset="0.271" stop-color="#2487ac"/><stop offset="1" stop-color="#093a5a"/></linearGradient></defs><rect width="1280" height="800" fill="url(#a)"/><g transform="translate(10.303 -41.333)"><g transform="translate(143.35 270.709)"><path d="M556.585,73.751V319.8a17.823,17.823,0,0,1-17.951,17.727H112.491A17.823,17.823,0,0,1,94.54,319.8V73.751a17.823,17.823,0,0,1,17.951-17.727H538.634a17.823,17.823,0,0,1,17.951,17.727" transform="translate(-94.54 -56.024)" fill="#fff" opacity="0.56"/><path d="M556.585,73.751V86.483H94.54V73.751a17.823,17.823,0,0,1,17.951-17.727H538.634a17.823,17.823,0,0,1,17.951,17.727" transform="translate(-94.54 -56.024)" fill="#0b658b"/><path d="M169.514,63.975a6.622,6.622,0,1,1-6.625-6.542,6.584,6.584,0,0,1,6.625,6.542" transform="translate(229.169 -48.745)" fill="#fff" opacity="0.56"/><path d="M172.764,63.975a6.622,6.622,0,1,1-6.625-6.542,6.583,6.583,0,0,1,6.625,6.542" transform="translate(246.211 -48.745)" fill="#fff" opacity="0.56"/><path d="M176.014,63.975a6.622,6.622,0,1,1-6.625-6.542,6.583,6.583,0,0,1,6.625,6.542" transform="translate(263.254 -48.745)" fill="#fff" opacity="0.56"/><path d="M197.84,79.859c0,44.394-36.464,80.4-81.42,80.4-1.374,0-2.747-.031-4.09-.123V79.89l.031-.031Z" transform="translate(-1.252 67.104)" fill="#56b9e3"/><path d="M112.361,79.858l-.031.031v-.031Z" transform="translate(-1.252 67.101)" fill="#4738b3"/><path d="M177.275,66.834V227.423a81.226,81.226,0,0,1-49.483-19.761,79.57,79.57,0,0,1-27.848-60.518,78.69,78.69,0,0,1,4.215-25.557,81.3,81.3,0,0,1,73.116-54.753" transform="translate(-66.197 -0.181)" fill="#0b658b"/><path d="M197.813,129.115H112.335L171.87,70.324a79.6,79.6,0,0,1,25.943,58.791" transform="translate(-1.226 17.847)" fill="#3597c1"/><path d="M171.9,88.43l-59.535,58.791h-.031V66.911c1.342-.062,2.716-.093,4.09-.093A81.577,81.577,0,0,1,170.991,87.6c.312.277.624.555.905.832" transform="translate(-1.252 -0.259)" fill="#197ba4"/><rect width="84.292" height="15.415" transform="translate(243.51 75.26)" fill="#0b658b" opacity="0.56"/><rect width="185.755" height="3.083" transform="translate(243.51 108.414)" fill="#0b658b" opacity="0.56"/><rect width="185.755" height="3.083" transform="translate(243.51 127.694)" fill="#0b658b" opacity="0.56"/><rect width="185.755" height="3.083" transform="translate(243.51 146.975)" fill="#0b658b" opacity="0.56"/><rect width="113.557" height="3.083" transform="translate(243.51 166.255)" fill="#0b658b" opacity="0.56"/></g><g transform="translate(288.446 447.888)"><g transform="translate(0)"><g transform="translate(0 0)"><g transform="translate(0 0)"><path d="M422.459,60.15v143.4A10.389,10.389,0,0,1,412,213.887H163.628a10.389,10.389,0,0,1-10.463-10.332V60.15a10.386,10.386,0,0,1,10.463-10.332H412A10.386,10.386,0,0,1,422.459,60.15" transform="translate(-153.165 -49.818)" fill="#fff"/><path d="M422.459,60.15v7.422H153.165V60.15a10.386,10.386,0,0,1,10.463-10.332H412A10.386,10.386,0,0,1,422.459,60.15" transform="translate(-153.165 -49.818)" fill="#2484ac"/><path d="M214.174,54.847a3.86,3.86,0,1,1-3.861-3.813,3.837,3.837,0,0,1,3.861,3.813" transform="translate(18.192 -45.972)" fill="#fff"/><path d="M216.98,54.847a3.86,3.86,0,1,1-3.862-3.813,3.837,3.837,0,0,1,3.862,3.813" transform="translate(27.212 -45.972)" fill="#fff"/><path d="M219.786,54.847a3.86,3.86,0,1,1-3.861-3.813,3.837,3.837,0,0,1,3.861,3.813" transform="translate(36.234 -45.972)" fill="#fff"/><rect width="62.815" height="9.42" transform="translate(24.479 48.384)" fill="#88c4de"/><path d="M240.77,71.1H175.847V61.408H240.77Zm-62.815-2.081h60.707V63.489H177.955Z" transform="translate(-80.231 -13.161)" fill="#88c4de"/><rect width="197.184" height="1.886" transform="translate(24.479 68.645)" fill="#88c4de"/><rect width="148.352" height="1.886" transform="translate(24.484 80.426)" fill="#88c4de"/><rect width="94.254" height="1.886" transform="translate(24.484 92.206)" fill="#88c4de"/><rect width="96.143" height="1.886" transform="translate(125.521 92.206)" fill="#88c4de"/><rect width="41.695" height="1.886" transform="translate(179.968 80.426)" fill="#88c4de"/><rect width="120.546" height="1.882" transform="translate(24.484 103.991)" fill="#88c4de"/><rect width="197.184" height="1.886" transform="translate(24.479 115.277)" fill="#88c4de"/></g></g></g></g></g></svg>