<svg xmlns="http://www.w3.org/2000/svg" width="88" height="88" viewBox="0 0 88 88"><defs><style>.a{fill:#2484ac;}.b,.g{fill:none;}.b,.d,.g{stroke:#000;stroke-width:3px;}.b{stroke-linecap:square;}.b,.d{stroke-linejoin:round;}.c,.d{fill:#fff;}.d,.g{stroke-linecap:round;}.e,.f{fill:#44a6b2;}.e{opacity:0.5;}.f{opacity:0.7;}.g{stroke-miterlimit:10;}</style></defs><g transform="translate(-839 -78)"><circle class="a" cx="44" cy="44" r="44" transform="translate(839 78)"/><g transform="translate(854 97)"><g transform="translate(0)"><path class="b" d="M63.455,17.217s-.465,8.465,12.145,8.11c12.832-.361,12.145-8.817,12.145-8.817" transform="translate(-46.355 -11.785)"/><g transform="translate(37.967)"><path class="c" d="M141.733,9.748a2.915,2.915,0,0,1-2.943-2.879,2.943,2.943,0,0,1,5.885,0A2.913,2.913,0,0,1,141.733,9.748Z" transform="translate(-137.623 -2.848)"/><path d="M138.91,2.289a1.735,1.735,0,1,1-1.773,1.734,1.753,1.753,0,0,1,1.773-1.734m0-2.289a4.07,4.07,0,0,0-4.11,4.021,4.111,4.111,0,0,0,8.219,0A4.07,4.07,0,0,0,138.91,0h0Z" transform="translate(-134.8 0)"/></g><g transform="translate(12.525 0)"><path class="c" d="M54.753,9.748A2.915,2.915,0,0,1,51.81,6.869a2.943,2.943,0,0,1,5.885,0A2.914,2.914,0,0,1,54.753,9.748Z" transform="translate(-50.643 -2.848)"/><path d="M51.93,2.289a1.735,1.735,0,1,1-1.773,1.734A1.753,1.753,0,0,1,51.93,2.289M51.93,0a4.07,4.07,0,0,0-4.11,4.021,4.111,4.111,0,0,0,8.219,0A4.07,4.07,0,0,0,51.93,0h0Z" transform="translate(-47.82 0)"/></g><path class="d" d="M161.52,47.36h12.718a9.035,9.035,0,0,1-8.8,9.246H161.52V47.36Z" transform="translate(-115.738 -33.807)"/><path class="d" d="M48.45,68.591V42.26H81.523v26.9" transform="translate(-35.741 -30.166)"/><path class="d" d="M17.718,56.6H13.8A9.033,9.033,0,0,1,5,47.35H17.718V56.6Z" transform="translate(-5 -33.799)"/><path class="e" d="M123.553,60.721h-7.74a6.041,6.041,0,0,1-5.9-6.171h0V44.3h13.646" transform="translate(-79.224 -30.749)"/><path class="f" d="M62.66,104.637l-11.285,1.379L51.33,95.053a8.827,8.827,0,0,1,10.979,6.2,9.286,9.286,0,0,1,.351,2.536Z" transform="translate(-37.203 -67.591)"/><ellipse cx="2.363" cy="2.312" rx="2.363" ry="2.312" transform="translate(33.968 21.629)"/><ellipse cx="2.363" cy="2.312" rx="2.363" ry="2.312" transform="translate(19.793 21.629)"/><path class="d" d="M48.351,129.45H71.388a7.055,7.055,0,0,1,7.131,6.977h0a7.055,7.055,0,0,1-7.131,6.977H48.351a7.055,7.055,0,0,1-7.131-6.977h0A7.055,7.055,0,0,1,48.351,129.45Z" transform="translate(-30.626 -92.404)"/><line class="g" y2="3.32" transform="translate(20.574 42.363)"/><line class="g" y2="3.32" transform="translate(37.92 42.363)"/></g></g></g></svg>