<svg class="icon" viewBox="0 0 1024 1024" version="1.1" xmlns="http://www.w3.org/2000/svg" width="200" height="200"><path d="M932.571429 137.142857H740.571429v-73.142857c0-5.028571-4.114286-9.142857-9.142858-9.142857h-64c-5.028571 0-9.142857 4.114286-9.142857 9.142857v73.142857H365.714286v-73.142857c0-5.028571-4.114286-9.142857-9.142857-9.142857h-64c-5.028571 0-9.142857 4.114286-9.142858 9.142857v73.142857H91.428571c-20.228571 0-36.571429 16.342857-36.571428 36.571429v758.857143c0 20.228571 16.342857 36.571429 36.571428 36.571428h841.142858c20.228571 0 36.571429-16.342857 36.571428-36.571428V173.714286c0-20.228571-16.342857-36.571429-36.571428-36.571429z m-45.714286 749.714286H137.142857V219.428571h146.285714v54.857143c0 5.028571 4.114286 9.142857 9.142858 9.142857h64c5.028571 0 9.142857-4.114286 9.142857-9.142857v-54.857143h292.571428v54.857143c0 5.028571 4.114286 9.142857 9.142857 9.142857h64c5.028571 0 9.142857-4.114286 9.142858-9.142857v-54.857143h146.285714v667.428572zM657.714286 400h-51.428572c-3.428571 0-6.628571 1.942857-8.114285 5.028571L514.285714 571.2h-3.2l-83.885714-166.171429a9.142857 9.142857 0 0 0-8.114286-5.028571h-52.571428c-1.485714 0-3.085714 0.342857-4.342857 1.142857-4.457143 2.4-6.057143 8-3.657143 12.457143l102.057143 187.428571h-55.542858c-5.028571 0-9.142857 4.114286-9.142857 9.142858v24.342857c0 5.028571 4.114286 9.142857 9.142857 9.142857h74.4v38.514286h-74.4c-5.028571 0-9.142857 4.114286-9.142857 9.142857v24.342857c0 5.028571 4.114286 9.142857 9.142857 9.142857h74.4V786.285714c0 5.028571 4.114286 9.142857 9.142858 9.142857h47.2c5.028571 0 9.142857-4.114286 9.142857-9.142857v-61.485714h74.742857c5.028571 0 9.142857-4.114286 9.142857-9.142857v-24.342857c0-5.028571-4.114286-9.142857-9.142857-9.142857h-74.742857v-38.514286h74.742857c5.028571 0 9.142857-4.114286 9.142857-9.142857v-24.342857c0-5.028571-4.114286-9.142857-9.142857-9.142858h-56.114286l102.057143-187.542857c0.685714-1.371429 1.142857-2.857143 1.142857-4.342857 0.114286-5.028571-3.885714-9.142857-9.028571-9.142857z"></path></svg>