<svg class="icon" viewBox="0 0 1024 1024" version="1.1" xmlns="http://www.w3.org/2000/svg" width="200" height="200"><path d="M885.352 138.648c12.497 12.496 12.497 32.758 0 45.254L557.256 512l328.096 328.099c12.497 12.496 12.497 32.758 0 45.254-12.496 12.497-32.758 12.497-45.254 0L512 557.254 183.902 885.352c-12.496 12.497-32.758 12.497-45.254 0-12.497-12.496-12.497-32.758 0-45.254l328.098-328.099-328.098-328.097c-12.497-12.496-12.497-32.758 0-45.254 12.496-12.497 32.758-12.497 45.254 0l328.099 328.096 328.097-328.096c12.496-12.497 32.758-12.497 45.254 0z" fill="#000000"></path></svg>