<svg width="1156" height="340" viewBox="0 0 1156 340" fill="none" xmlns="http://www.w3.org/2000/svg">
<rect width="1156" height="340" fill="#001529"/>
<g clip-path="url(#clip0_117_3)">
<path d="M170 330C258.366 330 330 258.366 330 170C330 81.6344 258.366 10 170 10C81.6344 10 10 81.6344 10 170C10 258.366 81.6344 330 170 330Z" fill="#F2BB1E" stroke="white" stroke-width="20" stroke-miterlimit="10"/>
<path d="M277.63 144.35C275.43 138.88 271.95 134 269.16 129.13C266.37 125.88 264.28 121.82 261.49 118.57C228.72 77.15 177.83 62.57 132.49 79.57C101.85 91.6473 76.8348 114.747 62.36 144.33" fill="#F2BB1E"/>
<path d="M277.63 144.35C275.43 138.88 271.95 134 269.16 129.13C266.37 125.88 264.28 121.82 261.49 118.57C228.72 77.15 177.83 62.57 132.49 79.57C101.85 91.6473 76.8348 114.747 62.36 144.33" stroke="white" stroke-width="36" stroke-miterlimit="10"/>
<path d="M260.41 177.1L170.55 267C170.413 267.138 170.251 267.248 170.071 267.323C169.892 267.398 169.699 267.436 169.505 267.436C169.311 267.436 169.118 267.398 168.939 267.323C168.759 267.248 168.597 267.138 168.46 267L79.6 178.1" fill="#F2BB1E"/>
<path d="M260.41 177.1L170.55 267C170.413 267.138 170.251 267.248 170.071 267.323C169.892 267.398 169.699 267.436 169.505 267.436C169.311 267.436 169.118 267.398 168.939 267.323C168.759 267.248 168.597 267.138 168.46 267L79.6 178.1" stroke="white" stroke-width="36" stroke-miterlimit="10"/>
<path d="M170 93.7V185.54" stroke="white" stroke-width="36" stroke-miterlimit="10" stroke-linecap="round"/>
<path d="M472.296 35.696H586.216V43.888H472.296V35.696ZM501.992 26.608H511.464V51.568H501.992V26.608ZM546.408 26.608H555.88V51.824H546.408V26.608ZM538.216 64.24H581.096V72.432H538.216V64.24ZM470.888 132.592H587.24V140.912H470.888V132.592ZM484.968 103.664H573.8V135.408H564.456V111.472H546.408V135.408H537.96V111.472H520.04V135.408H511.848V111.472H493.928V135.408H484.968V103.664ZM539.112 52.72L548.2 54.512C544.36 69.488 537.832 83.952 530.28 93.296C528.616 92.016 524.776 89.328 522.472 88.176C530.024 79.344 535.912 66.16 539.112 52.72ZM548.328 78.064L555.752 74.224C561.896 80.88 567.912 90.096 570.472 96.24L562.664 100.72C560.232 94.32 554.216 84.848 548.328 78.064ZM505.32 55.28H514.792V99.44H505.32V55.28ZM481.64 59.76H490.728V96.24H481.64V59.76ZM636.04 38.64H749.96V47.6H636.04V38.64ZM665.736 26.608H675.208V62.704H665.736V26.608ZM710.152 26.608H719.624V62.704H710.152V26.608ZM646.408 72.944H745.736V82.032H646.408V72.944ZM687.88 56.304H697.864V79.216H687.88V56.304ZM646.408 76.784H656.392V121.968C656.392 129.008 659.336 131.824 669.192 131.824C676.488 131.824 713.992 131.824 721.928 131.824C728.2 131.824 737.8 131.568 742.28 130.672C742.664 133.488 743.176 137.968 743.688 140.272C740.488 140.912 731.016 141.168 722.312 141.168C714.248 141.168 674.824 141.168 670.344 141.168C653.32 141.168 646.408 136.56 646.408 121.712V76.784ZM808.872 35.568L815.4 29.68C822.44 35.696 831.4 44.016 835.752 49.392L828.84 56.304C824.744 50.672 815.912 41.84 808.872 35.568ZM818.472 141.68L816.808 132.592L819.496 128.496L842.152 113.136C842.792 115.696 844.2 119.536 845.096 121.456C823.72 136.688 820.392 139.248 818.472 141.68ZM798.888 66.8H826.024V76.016H798.888V66.8ZM818.472 141.808C817.448 139.76 814.76 136.176 813.096 134.64C815.4 132.848 819.24 128.496 819.24 122.224V66.8H828.84V129.264C828.84 129.264 818.472 137.968 818.472 141.808ZM853.16 77.552H902.696V86.768H853.16V77.552ZM849.064 77.552H858.792V126.832C858.792 131.952 860.328 133.104 868.52 133.104C872.488 133.104 891.816 133.104 896.808 133.104C904.744 133.104 906.024 129.904 906.792 111.728C909.096 113.52 913.32 115.056 916.136 115.696C914.6 136.56 911.4 142.448 897.448 142.448C894.12 142.448 871.08 142.448 868.008 142.448C853.544 142.448 849.064 139.248 849.064 126.832V77.552ZM846.632 35.568H907.048V93.296H897.448V45.04H846.632V35.568ZM984.264 48.88H991.944V85.488C991.944 104.176 989.512 128.88 966.984 143.6C965.832 141.936 963.528 139.248 961.736 137.84C982.856 124.912 984.264 101.872 984.264 85.488V48.88ZM988.744 117.36L994.76 113.008C1000.65 119.92 1007.82 129.264 1011.02 135.152L1004.62 140.272C1001.54 134.256 994.76 124.528 988.744 117.36ZM967.88 32.624H1007.94V111.088H1000.26V40.56H975.432V111.344H967.88V32.624ZM1011.14 76.4H1077.96V85.36H1011.14V76.4ZM1050.18 81.52C1055.05 104.048 1065.42 124.4 1080.52 134.128C1078.34 135.664 1075.53 139.12 1073.99 141.552C1057.99 130.032 1047.5 108.528 1041.86 83.44L1050.18 81.52ZM1020.87 145.008C1020.23 142.832 1018.44 139.12 1017.03 137.2C1019.21 136.176 1022.66 133.744 1022.66 128.624V29.168H1031.62V136.432C1031.62 136.432 1020.87 141.68 1020.87 145.008ZM1064.65 32.112L1073.48 34.928C1066.18 49.392 1054.41 63.344 1043.02 72.432C1041.48 70.64 1038.02 67.056 1035.98 65.392C1047.24 57.328 1058.12 45.04 1064.65 32.112ZM1020.87 145.008L1019.85 136.56L1023.69 132.848L1050.57 123.248C1050.57 125.808 1050.95 129.648 1051.34 131.568C1026.63 141.68 1023.05 143.216 1020.87 145.008Z" fill="white"/>
<path d="M402.455 298V228.182H426.864C431.727 228.182 435.739 229.023 438.898 230.705C442.057 232.364 444.409 234.602 445.955 237.42C447.5 240.216 448.273 243.318 448.273 246.727C448.273 249.727 447.739 252.205 446.67 254.159C445.625 256.114 444.239 257.659 442.511 258.795C440.807 259.932 438.955 260.773 436.955 261.318V262C439.091 262.136 441.239 262.886 443.398 264.25C445.557 265.614 447.364 267.568 448.818 270.114C450.273 272.659 451 275.773 451 279.455C451 282.955 450.205 286.102 448.614 288.898C447.023 291.693 444.511 293.909 441.08 295.545C437.648 297.182 433.182 298 427.682 298H402.455ZM410.909 290.5H427.682C433.205 290.5 437.125 289.432 439.443 287.295C441.784 285.136 442.955 282.523 442.955 279.455C442.955 277.091 442.352 274.909 441.148 272.909C439.943 270.886 438.227 269.273 436 268.068C433.773 266.841 431.136 266.227 428.091 266.227H410.909V290.5ZM410.909 258.864H426.591C429.136 258.864 431.432 258.364 433.477 257.364C435.545 256.364 437.182 254.955 438.386 253.136C439.614 251.318 440.227 249.182 440.227 246.727C440.227 243.659 439.159 241.057 437.023 238.92C434.886 236.761 431.5 235.682 426.864 235.682H410.909V258.864ZM464.892 298V228.182H473.347V290.5H505.801V298H464.892ZM564.71 228.182H573.165V274.409C573.165 279.182 572.04 283.443 569.79 287.193C567.563 290.92 564.415 293.864 560.347 296.023C556.278 298.159 551.506 299.227 546.028 299.227C540.551 299.227 535.778 298.159 531.71 296.023C527.642 293.864 524.483 290.92 522.233 287.193C520.006 283.443 518.892 279.182 518.892 274.409V228.182H527.347V273.727C527.347 277.136 528.097 280.17 529.597 282.83C531.097 285.466 533.233 287.545 536.006 289.068C538.801 290.568 542.142 291.318 546.028 291.318C549.915 291.318 553.256 290.568 556.051 289.068C558.847 287.545 560.983 285.466 562.46 282.83C563.96 280.17 564.71 277.136 564.71 273.727V228.182ZM590.048 298V228.182H632.185V235.682H598.503V259.273H630.003V266.773H598.503V290.5H632.73V298H590.048ZM674.423 228.182H684.514L708.241 286.136H709.06L732.787 228.182H742.878V298H734.969V244.955H734.287L712.469 298H704.832L683.014 244.955H682.332V298H674.423V228.182ZM818.739 263.091C818.739 270.455 817.409 276.818 814.75 282.182C812.091 287.545 808.443 291.682 803.807 294.591C799.17 297.5 793.875 298.955 787.92 298.955C781.966 298.955 776.67 297.5 772.034 294.591C767.398 291.682 763.75 287.545 761.091 282.182C758.432 276.818 757.102 270.455 757.102 263.091C757.102 255.727 758.432 249.364 761.091 244C763.75 238.636 767.398 234.5 772.034 231.591C776.67 228.682 781.966 227.227 787.92 227.227C793.875 227.227 799.17 228.682 803.807 231.591C808.443 234.5 812.091 238.636 814.75 244C817.409 249.364 818.739 255.727 818.739 263.091ZM810.557 263.091C810.557 257.045 809.545 251.943 807.523 247.784C805.523 243.625 802.807 240.477 799.375 238.341C795.966 236.205 792.148 235.136 787.92 235.136C783.693 235.136 779.864 236.205 776.432 238.341C773.023 240.477 770.307 243.625 768.284 247.784C766.284 251.943 765.284 257.045 765.284 263.091C765.284 269.136 766.284 274.239 768.284 278.398C770.307 282.557 773.023 285.705 776.432 287.841C779.864 289.977 783.693 291.045 787.92 291.045C792.148 291.045 795.966 289.977 799.375 287.841C802.807 285.705 805.523 282.557 807.523 278.398C809.545 274.239 810.557 269.136 810.557 263.091ZM888.318 228.182V298H880.136L842.091 243.182H841.409V298H832.955V228.182H841.136L879.318 283.136H880V228.182H888.318ZM943.418 245.636C943.009 242.182 941.349 239.5 938.44 237.591C935.531 235.682 931.963 234.727 927.736 234.727C924.645 234.727 921.94 235.227 919.622 236.227C917.327 237.227 915.531 238.602 914.236 240.352C912.963 242.102 912.327 244.091 912.327 246.318C912.327 248.182 912.77 249.784 913.656 251.125C914.565 252.443 915.724 253.545 917.134 254.432C918.543 255.295 920.02 256.011 921.565 256.58C923.111 257.125 924.531 257.568 925.827 257.909L932.918 259.818C934.736 260.295 936.759 260.955 938.986 261.795C941.236 262.636 943.384 263.784 945.429 265.239C947.497 266.67 949.202 268.511 950.543 270.761C951.884 273.011 952.554 275.773 952.554 279.045C952.554 282.818 951.565 286.227 949.588 289.273C947.634 292.318 944.77 294.739 940.997 296.534C937.247 298.33 932.69 299.227 927.327 299.227C922.327 299.227 917.997 298.42 914.338 296.807C910.702 295.193 907.838 292.943 905.747 290.057C903.679 287.17 902.509 283.818 902.236 280H910.963C911.19 282.636 912.077 284.818 913.622 286.545C915.19 288.25 917.168 289.523 919.554 290.364C921.963 291.182 924.554 291.591 927.327 291.591C930.554 291.591 933.452 291.068 936.02 290.023C938.588 288.955 940.622 287.477 942.122 285.591C943.622 283.682 944.372 281.455 944.372 278.909C944.372 276.591 943.724 274.705 942.429 273.25C941.134 271.795 939.429 270.614 937.315 269.705C935.202 268.795 932.918 268 930.463 267.318L921.872 264.864C916.418 263.295 912.099 261.057 908.918 258.148C905.736 255.239 904.145 251.432 904.145 246.727C904.145 242.818 905.202 239.409 907.315 236.5C909.452 233.568 912.315 231.295 915.906 229.682C919.52 228.045 923.554 227.227 928.009 227.227C932.509 227.227 936.509 228.034 940.009 229.648C943.509 231.239 946.281 233.42 948.327 236.193C950.395 238.966 951.486 242.114 951.599 245.636H943.418ZM962.636 235.682V228.182H1015V235.682H993.045V298H984.591V235.682H962.636ZM1028.05 298V228.182H1070.18V235.682H1036.5V259.273H1068V266.773H1036.5V290.5H1070.73V298H1028.05ZM1085.42 298V228.182H1109.01C1114.47 228.182 1118.95 229.114 1122.45 230.977C1125.95 232.818 1128.54 235.352 1130.22 238.58C1131.9 241.807 1132.74 245.477 1132.74 249.591C1132.74 253.705 1131.9 257.352 1130.22 260.534C1128.54 263.716 1125.96 266.216 1122.48 268.034C1119 269.83 1114.56 270.727 1109.15 270.727H1090.06V263.091H1108.88C1112.61 263.091 1115.61 262.545 1117.88 261.455C1120.17 260.364 1121.83 258.818 1122.86 256.818C1123.9 254.795 1124.42 252.386 1124.42 249.591C1124.42 246.795 1123.9 244.352 1122.86 242.261C1121.81 240.17 1120.14 238.557 1117.84 237.42C1115.55 236.261 1112.51 235.682 1108.74 235.682H1093.88V298H1085.42ZM1118.29 266.636L1135.47 298H1125.65L1108.74 266.636H1118.29Z" fill="white"/>
</g>
<defs>
<clipPath id="clip0_117_3">
<rect width="1156" height="340" fill="white"/>
</clipPath>
</defs>
</svg>
