<svg width="466" height="466" viewBox="0 0 466 466" fill="none" xmlns="http://www.w3.org/2000/svg">
<path d="M233 456C356.159 456 456 356.159 456 233C456 109.84 356.159 10 233 10C109.84 10 10 109.84 10 233C10 356.159 109.84 456 233 456Z" fill="#F2BB1E" stroke="white" stroke-width="20" stroke-miterlimit="10"/>
<path d="M383 197.26C379.94 189.62 375.08 182.83 371.2 176.04C367.31 171.51 364.4 165.85 360.51 161.32C314.84 103.6 243.9 83.22 180.74 107C139.93 122.84 104 154.53 83 197.25" fill="#F2BB1E"/>
<path d="M383 197.26C379.94 189.62 375.08 182.83 371.2 176.04C367.31 171.51 364.4 165.85 360.51 161.32C314.84 103.6 243.9 83.22 180.74 107C139.93 122.84 104 154.53 83 197.25" stroke="white" stroke-width="56" stroke-miterlimit="10"/>
<path d="M359 242.9L233.76 368.14C233.573 368.337 233.348 368.493 233.099 368.6C232.85 368.707 232.581 368.763 232.31 368.763C232.039 368.763 231.77 368.707 231.521 368.6C231.272 368.493 231.047 368.337 230.86 368.14L107 244.29" fill="#F2BB1E"/>
<path d="M359 242.9L233.76 368.14C233.573 368.337 233.348 368.493 233.099 368.6C232.85 368.707 232.581 368.763 232.31 368.763C232.039 368.763 231.77 368.707 231.521 368.6C231.272 368.493 231.047 368.337 230.86 368.14L107 244.29" stroke="white" stroke-width="56" stroke-miterlimit="10"/>
<path d="M233 126.65V254.65" stroke="white" stroke-width="56" stroke-miterlimit="10" stroke-linecap="round"/>
</svg>
