<svg xmlns="http://www.w3.org/2000/svg" viewBox="0 0 992.31 466"><defs><style>.cls-1{font-size:59.85px;stroke:#040000;font-family:Helvetica;}.cls-1,.cls-2{fill:#132245;}.cls-1,.cls-3,.cls-5,.cls-6,.cls-7{stroke-miterlimit:10;}.cls-2{font-size:99.75px;font-family:MicrosoftYaHei, Microsoft YaHei;}.cls-3,.cls-4,.cls-6,.cls-7{fill:#142246;}.cls-3,.cls-5,.cls-6,.cls-7{stroke:#fff;}.cls-3{stroke-width:20px;}.cls-5{fill:none;}.cls-5,.cls-6,.cls-7{stroke-width:56px;}.cls-7{stroke-linecap:round;}</style></defs><g id="图层_2" data-name="图层 2"><text class="cls-1" x="-23" y="-23"><tspan x="480.58" y="312.21">BLUE MONSTER</tspan></text><text class="cls-2" transform="translate(466.51 247.57) scale(1.01 1)">蓝 芒 记 账</text></g><g id="图层_1" data-name="图层 1"><circle class="cls-3" cx="233" cy="233" r="223"/><path class="cls-4" d="M406,220.26c-3.06-7.64-7.92-14.43-11.8-21.22-3.89-4.53-6.8-10.19-10.69-14.72C337.84,126.6,266.9,106.22,203.74,130,162.93,145.84,127,177.53,106,220.25" transform="translate(-23 -23)"/><path class="cls-5" d="M406,220.26c-3.06-7.64-7.92-14.43-11.8-21.22-3.89-4.53-6.8-10.19-10.69-14.72C337.84,126.6,266.9,106.22,203.74,130,162.93,145.84,127,177.53,106,220.25" transform="translate(-23 -23)"/><path class="cls-6" d="M382,265.9,256.76,391.14a2,2,0,0,1-2.9,0L130,267.29" transform="translate(-23 -23)"/><line class="cls-7" x1="233" y1="126.65" x2="233" y2="254.65"/></g></svg>