<svg xmlns="http://www.w3.org/2000/svg" viewBox="0 0 917.65 340"><defs><style>.cls-1{font-size:65px;font-family:Helvetica;}.cls-1,.cls-2{fill:#fff;}.cls-2{font-size:108.45px;font-family:MicrosoftYaHei, Microsoft YaHei;}.cls-3,.cls-4,.cls-6,.cls-7{fill:#f2bb1e;}.cls-3,.cls-5,.cls-6,.cls-7{stroke:#fff;stroke-miterlimit:10;}.cls-3{stroke-width:20px;}.cls-5{fill:none;}.cls-5,.cls-6,.cls-7{stroke-width:36px;}.cls-7{stroke-linecap:round;}</style></defs><g id="图层_2" data-name="图层 2"><text class="cls-1" x="-48.17" y="-86"><tspan x="359.65" y="257.08">BLUE MONSTER</tspan></text><text class="cls-2" transform="translate(346.03 184.91) scale(1.01 1)">蓝 芒 记 账</text></g><g id="图层_1" data-name="图层 1"><circle class="cls-3" cx="170" cy="170" r="160"/><path class="cls-4" d="M325.8,230.35c-2.2-5.47-5.68-10.35-8.47-15.22-2.79-3.25-4.88-7.31-7.67-10.56-32.77-41.42-83.66-56-129-39a131.94,131.94,0,0,0-70.13,64.76" transform="translate(-48.17 -86)"/><path class="cls-5" d="M325.8,230.35c-2.2-5.47-5.68-10.35-8.47-15.22-2.79-3.25-4.88-7.31-7.67-10.56-32.77-41.42-83.66-56-129-39a131.94,131.94,0,0,0-70.13,64.76" transform="translate(-48.17 -86)"/><path class="cls-6" d="M308.58,263.1,218.72,353a1.47,1.47,0,0,1-2.09,0L127.77,264.1" transform="translate(-48.17 -86)"/><line class="cls-7" x1="170" y1="93.7" x2="170" y2="185.54"/></g></svg>