<svg width="1156" height="340" viewBox="0 0 1156 340" fill="none" xmlns="http://www.w3.org/2000/svg">
<g clip-path="url(#clip0_104_26)">
<path d="M170 330C258.366 330 330 258.366 330 170C330 81.6344 258.366 10 170 10C81.6344 10 10 81.6344 10 170C10 258.366 81.6344 330 170 330Z" fill="#F2BB1E" stroke="white" stroke-width="20" stroke-miterlimit="10"/>
<path d="M277.63 144.35C275.43 138.88 271.95 134 269.16 129.13C266.37 125.88 264.28 121.82 261.49 118.57C228.72 77.15 177.83 62.57 132.49 79.57C101.85 91.6473 76.8348 114.747 62.36 144.33" fill="#F2BB1E"/>
<path d="M277.63 144.35C275.43 138.88 271.95 134 269.16 129.13C266.37 125.88 264.28 121.82 261.49 118.57C228.72 77.15 177.83 62.57 132.49 79.57C101.85 91.6473 76.8348 114.747 62.36 144.33" stroke="white" stroke-width="36" stroke-miterlimit="10"/>
<path d="M260.41 177.1L170.55 267C170.413 267.138 170.251 267.248 170.071 267.323C169.892 267.398 169.699 267.436 169.505 267.436C169.311 267.436 169.118 267.398 168.939 267.323C168.759 267.248 168.597 267.138 168.46 267L79.6 178.1" fill="#F2BB1E"/>
<path d="M260.41 177.1L170.55 267C170.413 267.138 170.251 267.248 170.071 267.323C169.892 267.398 169.699 267.436 169.505 267.436C169.311 267.436 169.118 267.398 168.939 267.323C168.759 267.248 168.597 267.138 168.46 267L79.6 178.1" stroke="white" stroke-width="36" stroke-miterlimit="10"/>
<path d="M170 93.7V185.54" stroke="white" stroke-width="36" stroke-miterlimit="10" stroke-linecap="round"/>
<path d="M472.296 35.696H586.216V43.888H472.296V35.696ZM501.992 26.608H511.464V51.568H501.992V26.608ZM546.408 26.608H555.88V51.824H546.408V26.608ZM538.216 64.24H581.096V72.432H538.216V64.24ZM470.888 132.592H587.24V140.912H470.888V132.592ZM484.968 103.664H573.8V135.408H564.456V111.472H546.408V135.408H537.96V111.472H520.04V135.408H511.848V111.472H493.928V135.408H484.968V103.664ZM539.112 52.72L548.2 54.512C544.36 69.488 537.832 83.952 530.28 93.296C528.616 92.016 524.776 89.328 522.472 88.176C530.024 79.344 535.912 66.16 539.112 52.72ZM548.328 78.064L555.752 74.224C561.896 80.88 567.912 90.096 570.472 96.24L562.664 100.72C560.232 94.32 554.216 84.848 548.328 78.064ZM505.32 55.28H514.792V99.44H505.32V55.28ZM481.64 59.76H490.728V96.24H481.64V59.76ZM636.04 38.64H749.96V47.6H636.04V38.64ZM665.736 26.608H675.208V62.704H665.736V26.608ZM710.152 26.608H719.624V62.704H710.152V26.608ZM646.408 72.944H745.736V82.032H646.408V72.944ZM687.88 56.304H697.864V79.216H687.88V56.304ZM646.408 76.784H656.392V121.968C656.392 129.008 659.336 131.824 669.192 131.824C676.488 131.824 713.992 131.824 721.928 131.824C728.2 131.824 737.8 131.568 742.28 130.672C742.664 133.488 743.176 137.968 743.688 140.272C740.488 140.912 731.016 141.168 722.312 141.168C714.248 141.168 674.824 141.168 670.344 141.168C653.32 141.168 646.408 136.56 646.408 121.712V76.784ZM808.872 35.568L815.4 29.68C822.44 35.696 831.4 44.016 835.752 49.392L828.84 56.304C824.744 50.672 815.912 41.84 808.872 35.568ZM818.472 141.68L816.808 132.592L819.496 128.496L842.152 113.136C842.792 115.696 844.2 119.536 845.096 121.456C823.72 136.688 820.392 139.248 818.472 141.68ZM798.888 66.8H826.024V76.016H798.888V66.8ZM818.472 141.808C817.448 139.76 814.76 136.176 813.096 134.64C815.4 132.848 819.24 128.496 819.24 122.224V66.8H828.84V129.264C828.84 129.264 818.472 137.968 818.472 141.808ZM853.16 77.552H902.696V86.768H853.16V77.552ZM849.064 77.552H858.792V126.832C858.792 131.952 860.328 133.104 868.52 133.104C872.488 133.104 891.816 133.104 896.808 133.104C904.744 133.104 906.024 129.904 906.792 111.728C909.096 113.52 913.32 115.056 916.136 115.696C914.6 136.56 911.4 142.448 897.448 142.448C894.12 142.448 871.08 142.448 868.008 142.448C853.544 142.448 849.064 139.248 849.064 126.832V77.552ZM846.632 35.568H907.048V93.296H897.448V45.04H846.632V35.568ZM984.264 48.88H991.944V85.488C991.944 104.176 989.512 128.88 966.984 143.6C965.832 141.936 963.528 139.248 961.736 137.84C982.856 124.912 984.264 101.872 984.264 85.488V48.88ZM988.744 117.36L994.76 113.008C1000.65 119.92 1007.82 129.264 1011.02 135.152L1004.62 140.272C1001.54 134.256 994.76 124.528 988.744 117.36ZM967.88 32.624H1007.94V111.088H1000.26V40.56H975.432V111.344H967.88V32.624ZM1011.14 76.4H1077.96V85.36H1011.14V76.4ZM1050.18 81.52C1055.05 104.048 1065.42 124.4 1080.52 134.128C1078.34 135.664 1075.53 139.12 1073.99 141.552C1057.99 130.032 1047.5 108.528 1041.86 83.44L1050.18 81.52ZM1020.87 145.008C1020.23 142.832 1018.44 139.12 1017.03 137.2C1019.21 136.176 1022.66 133.744 1022.66 128.624V29.168H1031.62V136.432C1031.62 136.432 1020.87 141.68 1020.87 145.008ZM1064.65 32.112L1073.48 34.928C1066.18 49.392 1054.41 63.344 1043.02 72.432C1041.48 70.64 1038.02 67.056 1035.98 65.392C1047.24 57.328 1058.12 45.04 1064.65 32.112ZM1020.87 145.008L1019.85 136.56L1023.69 132.848L1050.57 123.248C1050.57 125.808 1050.95 129.648 1051.34 131.568C1026.63 141.68 1023.05 143.216 1020.87 145.008Z" fill="white"/>
<path d="M402.455 306V236.182H426.864C431.727 236.182 435.739 237.023 438.898 238.705C442.057 240.364 444.409 242.602 445.955 245.42C447.5 248.216 448.273 251.318 448.273 254.727C448.273 257.727 447.739 260.205 446.67 262.159C445.625 264.114 444.239 265.659 442.511 266.795C440.807 267.932 438.955 268.773 436.955 269.318V270C439.091 270.136 441.239 270.886 443.398 272.25C445.557 273.614 447.364 275.568 448.818 278.114C450.273 280.659 451 283.773 451 287.455C451 290.955 450.205 294.102 448.614 296.898C447.023 299.693 444.511 301.909 441.08 303.545C437.648 305.182 433.182 306 427.682 306H402.455ZM410.909 298.5H427.682C433.205 298.5 437.125 297.432 439.443 295.295C441.784 293.136 442.955 290.523 442.955 287.455C442.955 285.091 442.352 282.909 441.148 280.909C439.943 278.886 438.227 277.273 436 276.068C433.773 274.841 431.136 274.227 428.091 274.227H410.909V298.5ZM410.909 266.864H426.591C429.136 266.864 431.432 266.364 433.477 265.364C435.545 264.364 437.182 262.955 438.386 261.136C439.614 259.318 440.227 257.182 440.227 254.727C440.227 251.659 439.159 249.057 437.023 246.92C434.886 244.761 431.5 243.682 426.864 243.682H410.909V266.864ZM464.892 306V236.182H473.347V298.5H505.801V306H464.892ZM564.71 236.182H573.165V282.409C573.165 287.182 572.04 291.443 569.79 295.193C567.563 298.92 564.415 301.864 560.347 304.023C556.278 306.159 551.506 307.227 546.028 307.227C540.551 307.227 535.778 306.159 531.71 304.023C527.642 301.864 524.483 298.92 522.233 295.193C520.006 291.443 518.892 287.182 518.892 282.409V236.182H527.347V281.727C527.347 285.136 528.097 288.17 529.597 290.83C531.097 293.466 533.233 295.545 536.006 297.068C538.801 298.568 542.142 299.318 546.028 299.318C549.915 299.318 553.256 298.568 556.051 297.068C558.847 295.545 560.983 293.466 562.46 290.83C563.96 288.17 564.71 285.136 564.71 281.727V236.182ZM590.048 306V236.182H632.185V243.682H598.503V267.273H630.003V274.773H598.503V298.5H632.73V306H590.048ZM674.423 236.182H684.514L708.241 294.136H709.06L732.787 236.182H742.878V306H734.969V252.955H734.287L712.469 306H704.832L683.014 252.955H682.332V306H674.423V236.182ZM818.739 271.091C818.739 278.455 817.409 284.818 814.75 290.182C812.091 295.545 808.443 299.682 803.807 302.591C799.17 305.5 793.875 306.955 787.92 306.955C781.966 306.955 776.67 305.5 772.034 302.591C767.398 299.682 763.75 295.545 761.091 290.182C758.432 284.818 757.102 278.455 757.102 271.091C757.102 263.727 758.432 257.364 761.091 252C763.75 246.636 767.398 242.5 772.034 239.591C776.67 236.682 781.966 235.227 787.92 235.227C793.875 235.227 799.17 236.682 803.807 239.591C808.443 242.5 812.091 246.636 814.75 252C817.409 257.364 818.739 263.727 818.739 271.091ZM810.557 271.091C810.557 265.045 809.545 259.943 807.523 255.784C805.523 251.625 802.807 248.477 799.375 246.341C795.966 244.205 792.148 243.136 787.92 243.136C783.693 243.136 779.864 244.205 776.432 246.341C773.023 248.477 770.307 251.625 768.284 255.784C766.284 259.943 765.284 265.045 765.284 271.091C765.284 277.136 766.284 282.239 768.284 286.398C770.307 290.557 773.023 293.705 776.432 295.841C779.864 297.977 783.693 299.045 787.92 299.045C792.148 299.045 795.966 297.977 799.375 295.841C802.807 293.705 805.523 290.557 807.523 286.398C809.545 282.239 810.557 277.136 810.557 271.091ZM888.318 236.182V306H880.136L842.091 251.182H841.409V306H832.955V236.182H841.136L879.318 291.136H880V236.182H888.318ZM943.418 253.636C943.009 250.182 941.349 247.5 938.44 245.591C935.531 243.682 931.963 242.727 927.736 242.727C924.645 242.727 921.94 243.227 919.622 244.227C917.327 245.227 915.531 246.602 914.236 248.352C912.963 250.102 912.327 252.091 912.327 254.318C912.327 256.182 912.77 257.784 913.656 259.125C914.565 260.443 915.724 261.545 917.134 262.432C918.543 263.295 920.02 264.011 921.565 264.58C923.111 265.125 924.531 265.568 925.827 265.909L932.918 267.818C934.736 268.295 936.759 268.955 938.986 269.795C941.236 270.636 943.384 271.784 945.429 273.239C947.497 274.67 949.202 276.511 950.543 278.761C951.884 281.011 952.554 283.773 952.554 287.045C952.554 290.818 951.565 294.227 949.588 297.273C947.634 300.318 944.77 302.739 940.997 304.534C937.247 306.33 932.69 307.227 927.327 307.227C922.327 307.227 917.997 306.42 914.338 304.807C910.702 303.193 907.838 300.943 905.747 298.057C903.679 295.17 902.509 291.818 902.236 288H910.963C911.19 290.636 912.077 292.818 913.622 294.545C915.19 296.25 917.168 297.523 919.554 298.364C921.963 299.182 924.554 299.591 927.327 299.591C930.554 299.591 933.452 299.068 936.02 298.023C938.588 296.955 940.622 295.477 942.122 293.591C943.622 291.682 944.372 289.455 944.372 286.909C944.372 284.591 943.724 282.705 942.429 281.25C941.134 279.795 939.429 278.614 937.315 277.705C935.202 276.795 932.918 276 930.463 275.318L921.872 272.864C916.418 271.295 912.099 269.057 908.918 266.148C905.736 263.239 904.145 259.432 904.145 254.727C904.145 250.818 905.202 247.409 907.315 244.5C909.452 241.568 912.315 239.295 915.906 237.682C919.52 236.045 923.554 235.227 928.009 235.227C932.509 235.227 936.509 236.034 940.009 237.648C943.509 239.239 946.281 241.42 948.327 244.193C950.395 246.966 951.486 250.114 951.599 253.636H943.418ZM962.636 243.682V236.182H1015V243.682H993.045V306H984.591V243.682H962.636ZM1028.05 306V236.182H1070.18V243.682H1036.5V267.273H1068V274.773H1036.5V298.5H1070.73V306H1028.05ZM1085.42 306V236.182H1109.01C1114.47 236.182 1118.95 237.114 1122.45 238.977C1125.95 240.818 1128.54 243.352 1130.22 246.58C1131.9 249.807 1132.74 253.477 1132.74 257.591C1132.74 261.705 1131.9 265.352 1130.22 268.534C1128.54 271.716 1125.96 274.216 1122.48 276.034C1119 277.83 1114.56 278.727 1109.15 278.727H1090.06V271.091H1108.88C1112.61 271.091 1115.61 270.545 1117.88 269.455C1120.17 268.364 1121.83 266.818 1122.86 264.818C1123.9 262.795 1124.42 260.386 1124.42 257.591C1124.42 254.795 1123.9 252.352 1122.86 250.261C1121.81 248.17 1120.14 246.557 1117.84 245.42C1115.55 244.261 1112.51 243.682 1108.74 243.682H1093.88V306H1085.42ZM1118.29 274.636L1135.47 306H1125.65L1108.74 274.636H1118.29Z" fill="white"/>
</g>
<defs>
<clipPath id="clip0_104_26">
<rect width="1156" height="340" fill="white"/>
</clipPath>
</defs>
</svg>
