<svg class="icon" viewBox="0 0 1024 1024" version="1.1" xmlns="http://www.w3.org/2000/svg" width="200" height="200"><path d="M877.738667 283.591111h-155.420445v-18.318222a210.318222 210.318222 0 0 0-420.579555 0v18.289778H146.318222c-20.224 0-36.579556 16.355556-36.579555 36.579555V932.693333c0 20.195556 16.355556 36.551111 36.579555 36.551111h731.420445c20.252444 0 36.579556-16.327111 36.579555-36.551111V320.142222c0-20.224-16.327111-36.579556-36.579555-36.579555z m-493.710223-18.318222c0-70.741333 57.258667-128 128-128s128 57.258667 128 128v18.289778h-256v-18.289778z m448 621.710222h-640V365.852444h109.710223v100.579556c0 5.034667 4.124444 9.130667 9.159111 9.130667h64a9.159111 9.159111 0 0 0 9.130666-9.130667v-100.579556h256v100.579556c0 5.034667 4.124444 9.130667 9.159112 9.130667h64a9.159111 9.159111 0 0 0 9.130666-9.130667v-100.579556h109.710222v521.159112z"></path></svg>